<svg width="24" height="24" fill="none" xmlns="http://www.w3.org/2000/svg"><path fill-rule="evenodd" clip-rule="evenodd" d="M11.996 3.703a8.24 8.24 0 00-5.866 2.43c-3.235 3.235-3.235 8.499 0 11.733a8.24 8.24 0 005.866 2.43c2.216 0 4.3-.863 5.866-2.43 3.235-3.234 3.235-8.498 0-11.732a8.243 8.243 0 00-5.866-2.43zm6.6 14.896a9.271 9.271 0 01-6.6 2.734 9.271 9.271 0 01-6.6-2.734c-3.64-3.639-3.64-9.56 0-13.198a9.27 9.27 0 016.6-2.735c2.493 0 4.836.972 6.6 2.735 3.638 3.639 3.638 9.56 0 13.198zm-9.41-3.27a.517.517 0 01-.367-.884L11.263 12 8.819 9.555a.518.518 0 11.733-.733l2.444 2.445 2.444-2.445a.519.519 0 01.734.733L12.729 12l2.445 2.444a.519.519 0 01-.734.733l-2.444-2.444-2.444 2.445a.517.517 0 01-.367.152z" fill="#fff"/><path fill-rule="evenodd" clip-rule="evenodd" d="M17.862 17.866a8.24 8.24 0 01-5.866 2.43 8.24 8.24 0 01-5.867-2.43c-3.234-3.234-3.234-8.497 0-11.732a8.242 8.242 0 015.867-2.43c2.215 0 4.3.863 5.866 2.43 3.235 3.235 3.235 8.498 0 11.732zM8.819 8.822a.518.518 0 000 .733L11.263 12l-2.444 2.445a.518.518 0 10.733.733l2.444-2.445 2.444 2.444a.517.517 0 10.734-.733L12.729 12l2.445-2.445a.519.519 0 00-.734-.733l-2.444 2.445-2.444-2.445a.518.518 0 00-.733 0z" fill="#3E4B5C"/></svg>